<?xml version="1.0" encoding="utf-8"?>
<!-- Svg Vector Icons : http://www.onlinewebfonts.com/icon -->
<!DOCTYPE svg PUBLIC "-//W3C//DTD SVG 1.1//EN" "http://www.w3.org/Graphics/SVG/1.1/DTD/svg11.dtd">
<svg version="1.1" xmlns="http://www.w3.org/2000/svg" xmlns:xlink="http://www.w3.org/1999/xlink" x="0px" y="0px" viewBox="0 0 1000 1000" enable-background="new 0 0 1000 1000" xml:space="preserve">
<metadata> Svg Vector Icons : http://www.onlinewebfonts.com/icon </metadata>
<g><g transform="translate(0.000000,511.000000) scale(0.100000,-0.100000)"><path d="M524,3501c-185.3-66-296.1-168.3-379.2-353.7c-42.6-95.9-44.7-127.8-44.7-3038v-2942.1l66-130c68.2-138.5,140.6-210.9,283.3-287.6l87.3-46.9l4420.7-6.4c4900-4.3,4518.6-17.1,4714.6,134.2c63.9,49,119.3,117.2,161.9,204.5l66,132.1V111.4v2944.3l-66,129.9c-68.2,138.5-140.6,210.9-283.4,287.6l-87.3,46.9l-4431.3,4.3C1444.3,3528.7,585.7,3524.4,524,3501z M5100.1,3371c102.3-70.3,74.6-236.5-46.9-291.9c-112.9-51.1-245,74.6-210.9,204.5C4867.9,3392.3,5004.3,3437.1,5100.1,3371z M9260.9,111.4v-2758.9H5000H739.1V111.4v2758.9H5000h4260.9V111.4z M5370.7-2873.3c40.5-38.4,44.7-95.9,8.5-132.1c-36.2-36.2-722.2-36.2-758.4,0c-36.2,36.2-32,93.7,8.5,132.1C4678.3-2822.2,5321.7-2822.2,5370.7-2873.3z"/></g></g>
</svg>